<svg xmlns="http://www.w3.org/2000/svg" viewBox="0 0 137.42 21.37"><defs><style>.cls-1{fill:#fefefe;}.cls-1,.cls-2{fill-rule:evenodd;}.cls-2{fill:#9e1334;}</style></defs><title>Asset 1</title><g id="Layer_2" data-name="Layer 2"><g id="_1" data-name="1"><path class="cls-1" d="M31.24,5.69a5,5,0,1,0,0,9.9,5,5,0,1,0,0-9.9Zm0,2.17a2.66,2.66,0,0,1,2.62,2.77,2.69,2.69,0,0,1-2.62,2.8,2.74,2.74,0,0,1-2.67-2.8,2.71,2.71,0,0,1,2.67-2.77ZM46.2,15.48l-2-3.17a3.3,3.3,0,0,0,1.74-3.14c0-2.16-1.47-3.41-4-3.41H37.49v9.72H40V12.79h1.88l1.42,2.69ZM40,7.79h1.84c1,0,1.62.51,1.62,1.47a1.42,1.42,0,0,1-1.62,1.51H40v-3Zm7.24-2v9.72H49.8V5.76Zm8.79-.07a5,5,0,1,0,5.25,4.92,5,5,0,0,0-5.25-4.92Zm0,2.17a2.66,2.66,0,0,1,2.62,2.77,2.69,2.69,0,0,1-2.62,2.8,2.74,2.74,0,0,1-2.68-2.8,2.71,2.71,0,0,1,2.68-2.77Zm6.22-2.1v9.72h2.37V9.66l4.41,5.82h2.22V5.76H69v5.85L64.54,5.76ZM80.7,15.48h1.2l-4.34-9.7H76.41l-4.35,9.7h1.18L74.32,13H79.6l1.1,2.48ZM74.78,12,77,7l2.21,5Zm8.39-6.19v9.7h5.36v-1H84.27V5.78Zm6.9,0v9.7h5.37v-1H91.18V5.78Zm6.91,0v9.7h1.11V5.78Zm11,9.7h1.2l-4.34-9.7H103.7l-4.35,9.7h1.18L101.61,13h5.28l1.1,2.48ZM102.07,12l2.17-5,2.21,5Zm8.39-6.19v9.7h1.11V7.61l5.82,7.87h1.13V5.78h-1.09v7.88l-5.82-7.88ZM128.24,8l.67-.81a5.27,5.27,0,0,0-3.55-1.41,4.89,4.89,0,1,0,0,9.77,5.32,5.32,0,0,0,3.6-1.47l-.68-.73a4.22,4.22,0,0,1-2.87,1.16,3.86,3.86,0,1,1,0-7.72A4.1,4.1,0,0,1,128.24,8Zm2.42-2.19v9.7h6.76v-1h-5.65V11.07h4.89v-1h-4.89V6.8h5.47v-1Z"/><path class="cls-2" d="M18.27,13.5,11.6,5.06H9.27V18.65a8.1,8.1,0,1,1,9.52-8,8,8,0,0,1-.52,2.81ZM21.82,18l-1.74-2.2A10.69,10.69,0,1,0,9.27,21.27a9.5,9.5,0,0,0,1.42.1A9.94,9.94,0,0,0,12,21.28V9.52l4.91,6.31,1.62,2.08,2.73,3.37h3.13Z"/></g></g></svg>