<?xml version="1.0" encoding="utf-8"?>
<!-- Generator: Adobe Illustrator 23.0.1, SVG Export Plug-In . SVG Version: 6.00 Build 0)  -->
<svg version="1.1" id="Layer_1" xmlns="http://www.w3.org/2000/svg" xmlns:xlink="http://www.w3.org/1999/xlink" x="0px" y="0px"
	 viewBox="0 0 24.4 21.4" style="enable-background:new 0 0 24.4 21.4;" xml:space="preserve">
<style type="text/css">
	.st0{opacity:5.000000e-02;}
	.st1{fill-rule:evenodd;clip-rule:evenodd;fill:#FFFFFF;}
</style>
<title>Asset 2</title>
<g class="st0">
	<g id="Layer_1-2">
		<path class="st1" d="M18.3,13.5l-6.7-8.4H9.3v13.6c-4.4-0.8-7.3-5-6.6-9.4s5-7.3,9.4-6.6c3.9,0.7,6.7,4,6.7,7.9
			C18.8,11.6,18.6,12.6,18.3,13.5L18.3,13.5z M21.8,18l-1.7-2.2c2.8-5.2,0.9-11.6-4.3-14.4S4.1,0.5,1.3,5.7S0.4,17.3,5.6,20.1
			c1.1,0.6,2.4,1,3.6,1.2c0.5,0.1,0.9,0.1,1.4,0.1c0.4,0,0.9,0,1.3-0.1V9.5l4.9,6.3l1.6,2.1l2.7,3.4h3.1L21.8,18z"/>
	</g>
</g>
</svg>
