<svg xmlns="http://www.w3.org/2000/svg" viewBox="0 0 146.87 25.22"><defs><style>.cls-1{fill:#fefefe;}.cls-1,.cls-2,.cls-3,.cls-4{fill-rule:evenodd;}.cls-2{fill:#8fb5e0;}.cls-3{fill:#6788c2;}.cls-4{fill:#3a67ab;}</style></defs><title>Asset 1</title><g id="Layer_2" data-name="Layer 2"><g id="_1" data-name="1"><path class="cls-1" d="M35.48,11.93h0l3.72,4.31h1.13l-3.8-4.39a4,4,0,0,0,2.19-.93,2.72,2.72,0,0,0,.89-2.18,3.18,3.18,0,0,0-.34-1.49,2.47,2.47,0,0,0-.93-1,4.18,4.18,0,0,0-1.23-.52,5.77,5.77,0,0,0-1.4-.17H30l.75.87h5A3.81,3.81,0,0,1,37.85,7a1.94,1.94,0,0,1,.84,1.76,2,2,0,0,1-.85,1.77,3.72,3.72,0,0,1-2.07.55h-1l.75.87ZM138.17,5.57v.87h3.9v9.8h.9V6.44h3.9V5.57Zm-10.89,0V16.24h.9V11.47H134V10.6h-5.78V6.44h6.22V5.57ZM111,10.91a5.7,5.7,0,0,0,.36,2,5.55,5.55,0,0,0,1,1.76,4.72,4.72,0,0,0,1.75,1.27,6.49,6.49,0,0,0,4.85,0,4.8,4.8,0,0,0,1.75-1.27,5.55,5.55,0,0,0,1-1.76,5.92,5.92,0,0,0,0-4,5.66,5.66,0,0,0-1-1.76A4.67,4.67,0,0,0,119,5.88a6.37,6.37,0,0,0-4.85,0,4.59,4.59,0,0,0-1.75,1.26A5.89,5.89,0,0,0,111,10.91Zm10.19,0a5.23,5.23,0,0,1-.49,2.23,4.22,4.22,0,0,1-1.57,1.72,5.15,5.15,0,0,1-5.15,0,4.15,4.15,0,0,1-1.57-1.72,5.09,5.09,0,0,1-.49-2.23,5.1,5.1,0,0,1,.49-2.24A4.15,4.15,0,0,1,114,7a5.15,5.15,0,0,1,5.15,0,4.22,4.22,0,0,1,1.57,1.72,5.24,5.24,0,0,1,.49,2.24ZM99.27,8.12a2.36,2.36,0,0,0,.36,1.31,2.53,2.53,0,0,0,.93.88,8.13,8.13,0,0,0,1.26.57c.46.17.93.33,1.39.48a10.65,10.65,0,0,1,1.26.51,2.53,2.53,0,0,1,.93.74,1.73,1.73,0,0,1,.36,1.1,1.48,1.48,0,0,1-.81,1.4,4.38,4.38,0,0,1-2.11.44,7,7,0,0,1-3.59-.94v.9a7.42,7.42,0,0,0,3.65.9,6,6,0,0,0,1.86-.25,3,3,0,0,0,1.37-.91,2.41,2.41,0,0,0,.55-1.6,2.53,2.53,0,0,0-.36-1.36,2.7,2.7,0,0,0-.93-.91,7.09,7.09,0,0,0-1.27-.59c-.46-.17-.92-.32-1.38-.47a10.22,10.22,0,0,1-1.27-.49,2.65,2.65,0,0,1-.93-.7,1.59,1.59,0,0,1-.36-1,1.5,1.5,0,0,1,.75-1.38,3.69,3.69,0,0,1,1.92-.45,5.72,5.72,0,0,1,3.08.8V6.15a6.16,6.16,0,0,0-3.14-.75,4.36,4.36,0,0,0-2.5.7,2.3,2.3,0,0,0-1,2ZM87.46,5.57V16.24h7.19v-.87h-6.3V11.3h5.74v-.87H88.35v-4h6.19V5.57ZM72.94,10.91a6.31,6.31,0,0,0,.49,2.53,4.38,4.38,0,0,0,1.32,1.72,5.88,5.88,0,0,0,1.83.94,7.36,7.36,0,0,0,2.13.31,7.59,7.59,0,0,0,3.3-.72V10.62H81.1v4.45a5.55,5.55,0,0,1-2.33.48A6.15,6.15,0,0,1,77,15.3a5.39,5.39,0,0,1-1.57-.79,3.59,3.59,0,0,1-1.13-1.46,5.11,5.11,0,0,1-.42-2.14,5.08,5.08,0,0,1,.42-2.12A3.67,3.67,0,0,1,75.4,7.34a5.05,5.05,0,0,1,1.54-.81,6.24,6.24,0,0,1,4.8.49V6.1a7.09,7.09,0,0,0-3.16-.7,6.25,6.25,0,0,0-2.07.35,5.86,5.86,0,0,0-1.8,1,4.66,4.66,0,0,0-1.29,1.73,5.94,5.94,0,0,0-.48,2.44Zm-13,5.33V7.1l7,9.14h.83V5.57h-.9V14.7l-7-9.13H59V16.24Zm-15.11,0,1.28-2.86h6l1.27,2.86h1L49.59,5.57h-1L43.82,16.24Zm4.15-9.4c0-.09.07-.2.13-.34a2.47,2.47,0,0,1,.14.34l2.52,5.68H46.42Z"/><polygon class="cls-2" points="17.87 21.81 15.17 21.81 0 4.22 2.66 4.22 17.87 21.81"/><polygon class="cls-3" points="25.34 25.22 22.63 25.22 7.95 8.19 10.62 8.19 25.34 25.22"/><path class="cls-4" d="M19.27,12.93,27,21.81h-2.7L15,11.05h2.45A7.45,7.45,0,0,0,21.51,10a3.78,3.78,0,0,0,1.64-3.42,3.74,3.74,0,0,0-1.63-3.41,7.47,7.47,0,0,0-4.1-1.07H7.23L5.44,0H17.29a11.56,11.56,0,0,1,2.87.34,9.39,9.39,0,0,1,2.53,1.07A5.16,5.16,0,0,1,24.6,3.46a6.35,6.35,0,0,1,.71,3.09,5.68,5.68,0,0,1-1.83,4.51A8.35,8.35,0,0,1,19.27,12.93Z"/></g></g></svg>