<?xml version="1.0" encoding="utf-8"?>
<svg version="1.1" id="Layer_1" xmlns="http://www.w3.org/2000/svg" xmlns:xlink="http://www.w3.org/1999/xlink" x="0px" y="0px"
	 viewBox="0 0 27 25.2" style="enable-background:new 0 0 27 25.2;" xml:space="preserve">
<style type="text/css">
	.st0{opacity:5.000000e-02;}
	.st1{fill-rule:evenodd;clip-rule:evenodd;fill:#FFFFFF;}
</style>
<title>Asset 2</title>
<g class="st0">
	<g id="_1">
		<polygon class="st1" points="17.9,21.8 15.2,21.8 0,4.2 2.7,4.2 		"/>
		<polygon class="st1" points="25.3,25.2 22.6,25.2 7.9,8.2 10.6,8.2 		"/>
		<path class="st1" d="M19.3,12.9l7.7,8.9h-2.7L15,11.1h2.5c1.4,0,2.8-0.3,4.1-1.1c1.1-0.8,1.7-2.1,1.6-3.4c0.1-1.3-0.5-2.7-1.6-3.4
			c-1.2-0.7-2.7-1.1-4.1-1.1H7.2L5.4,0h11.9c1,0,1.9,0.1,2.9,0.3c0.9,0.2,1.7,0.6,2.5,1.1c0.8,0.5,1.5,1.2,1.9,2
			c0.5,1,0.7,2,0.7,3.1c0.1,1.7-0.6,3.4-1.8,4.5C22.3,12.1,20.8,12.7,19.3,12.9z"/>
	</g>
</g>
</svg>
